<?xml version="1.0" standalone="no"?>
<!DOCTYPE svg PUBLIC "-//W3C//DTD SVG 20010904//EN"
 "http://www.w3.org/TR/2001/REC-SVG-20010904/DTD/svg10.dtd">
<svg version="1.0" xmlns="http://www.w3.org/2000/svg"
 width="700.000000pt" height="700.000000pt" viewBox="0 0 700.000000 700.000000"
 preserveAspectRatio="xMidYMid meet">
<metadata>
Created by potrace 1.11, written by Peter Selinger 2001-2013
</metadata>
<g transform="translate(0.000000,700.000000) scale(0.100000,-0.100000)"
fill="#000000" stroke="none">
<path d="M1067 6564 c-1 -1 -38 -4 -82 -7 -272 -20 -500 -235 -541 -507 -9
-59 -9 -5030 0 -5092 37 -263 244 -473 506 -514 56 -8 5062 -8 5110 0 116 21
265 100 337 179 83 91 145 222 159 338 4 30 7 1179 7 2554 0 1962 -3 2513 -13
2560 -30 147 -113 281 -220 360 -99 72 -189 109 -293 121 -47 6 -4963 13
-4970 8z m988 -1944 c33 -7 98 -30 143 -51 172 -79 303 -262 338 -471 4 -24 8
-286 9 -583 1 -582 -2 -633 -54 -763 -73 -183 -234 -318 -436 -364 -22 -6
-212 -11 -422 -13 l-383 -2 0 1131 0 1132 373 -2 c265 0 389 -5 432 -14z
m1866 0 c0 -8 1 -98 1 -200 l0 -185 -364 -3 -364 -2 -1 -260 c0 -182 3 -260
11 -261 6 -1 106 -2 221 -3 l210 -1 0 -200 0 -200 -213 -2 c-118 -1 -217 -4
-220 -8 -10 -9 -10 -509 -1 -515 4 -3 167 -5 363 -4 318 1 356 -1 357 -15 1
-20 1 -362 0 -378 -1 -9 -112 -11 -463 -10 l-463 2 -49 25 c-62 32 -101 72
-132 137 l-24 53 2 922 3 923 22 42 c45 85 103 131 189 148 30 6 229 10 483
10 376 0 431 -2 432 -15z m689 14 c0 -1 16 -64 36 -140 20 -77 38 -146 40
-154 2 -8 16 -64 33 -125 16 -60 51 -198 79 -305 50 -191 74 -286 127 -485 86
-324 82 -311 85 -330 2 -19 17 20 30 75 16 71 212 827 246 947 14 51 27 101
29 110 10 52 97 380 104 393 7 12 44 15 224 15 152 0 217 -3 217 -11 0 -6 -34
-137 -75 -290 -42 -153 -77 -288 -79 -299 -6 -29 -204 -774 -215 -810 -5 -16
-28 -100 -50 -185 -23 -85 -55 -207 -71 -270 -39 -146 -80 -230 -150 -300 -69
-70 -117 -94 -195 -96 -109 -4 -207 63 -290 198 -38 60 -46 83 -94 268 -33
127 -154 581 -202 758 -33 125 -49 184 -108 407 -21 83 -49 186 -61 230 -12
44 -33 121 -46 170 -13 50 -30 115 -39 145 -25 92 -43 85 205 85 121 0 220 -1
220 -1z"/>
<path d="M1684 3498 l1 -713 130 -1 c191 -1 271 32 320 131 l24 50 0 525 c1
385 -3 536 -12 565 -16 53 -84 119 -144 139 -34 12 -84 16 -184 16 l-137 0 2
-712z"/>
</g>
</svg>
